<svg width="90" height="90" viewBox="0 0 90 90" fill="none" xmlns="http://www.w3.org/2000/svg">
<path d="M3.78322 0.199219H0.199219V3.78322H3.78322V0.199219Z" fill="white"/>
<path d="M7.36722 0.199219H3.78322V3.78322H7.36722V0.199219Z" fill="white"/>
<path d="M10.9512 0.199219H7.36722V3.78322H10.9512V0.199219Z" fill="white"/>
<path d="M14.5352 0.199219H10.9512V3.78322H14.5352V0.199219Z" fill="white"/>
<path d="M18.1192 0.199219H14.5352V3.78322H18.1192V0.199219Z" fill="white"/>
<path d="M21.7032 0.199219H18.1192V3.78322H21.7032V0.199219Z" fill="white"/>
<path d="M25.2872 0.199219H21.7032V3.78322H25.2872V0.199219Z" fill="white"/>
<path d="M32.4552 0.199219H28.8712V3.78322H32.4552V0.199219Z" fill="white"/>
<path d="M36.0392 0.199219H32.4552V3.78322H36.0392V0.199219Z" fill="white"/>
<path d="M43.2072 0.199219H39.6232V3.78322H43.2072V0.199219Z" fill="white"/>
<path d="M46.7912 0.199219H43.2072V3.78322H46.7912V0.199219Z" fill="white"/>
<path d="M53.9592 0.199219H50.3752V3.78322H53.9592V0.199219Z" fill="white"/>
<path d="M61.1272 0.199219H57.5432V3.78322H61.1272V0.199219Z" fill="white"/>
<path d="M68.2952 0.199219H64.7112V3.78322H68.2952V0.199219Z" fill="white"/>
<path d="M71.8792 0.199219H68.2952V3.78322H71.8792V0.199219Z" fill="white"/>
<path d="M75.4632 0.199219H71.8792V3.78322H75.4632V0.199219Z" fill="white"/>
<path d="M79.0472 0.199219H75.4632V3.78322H79.0472V0.199219Z" fill="white"/>
<path d="M82.6312 0.199219H79.0472V3.78322H82.6312V0.199219Z" fill="white"/>
<path d="M86.2152 0.199219H82.6312V3.78322H86.2152V0.199219Z" fill="white"/>
<path d="M89.7992 0.199219H86.2152V3.78322H89.7992V0.199219Z" fill="white"/>
<path d="M3.78322 3.78322H0.199219V7.36722H3.78322V3.78322Z" fill="white"/>
<path d="M25.2872 3.78322H21.7032V7.36722H25.2872V3.78322Z" fill="white"/>
<path d="M39.6232 3.78322H36.0392V7.36722H39.6232V3.78322Z" fill="white"/>
<path d="M43.2072 3.78322H39.6232V7.36722H43.2072V3.78322Z" fill="white"/>
<path d="M57.5432 3.78322H53.9592L53.9592 7.36722H57.5432V3.78322Z" fill="white"/>
<path d="M68.2952 3.78322H64.7112V7.36722H68.2952V3.78322Z" fill="white"/>
<path d="M89.7992 3.78322H86.2152V7.36722H89.7992V3.78322Z" fill="white"/>
<path d="M3.78322 7.36722H0.199219V10.9512H3.78322V7.36722Z" fill="white"/>
<path d="M10.9512 7.36722H7.36722V10.9512H10.9512V7.36722Z" fill="white"/>
<path d="M14.5352 7.36722H10.9512V10.9512H14.5352V7.36722Z" fill="white"/>
<path d="M18.1192 7.36722H14.5352V10.9512H18.1192V7.36722Z" fill="white"/>
<path d="M25.2872 7.36722H21.7032V10.9512H25.2872V7.36722Z" fill="white"/>
<path d="M32.4552 7.36722H28.8712V10.9512H32.4552V7.36722Z" fill="white"/>
<path d="M36.0392 7.36722H32.4552V10.9512H36.0392V7.36722Z" fill="white"/>
<path d="M57.5432 7.36722H53.9592V10.9512H57.5432V7.36722Z" fill="white"/>
<path d="M68.2952 7.36722H64.7112V10.9512H68.2952V7.36722Z" fill="white"/>
<path d="M75.4632 7.36722H71.8792V10.9512H75.4632V7.36722Z" fill="white"/>
<path d="M79.0472 7.36722H75.4632V10.9512H79.0472V7.36722Z" fill="white"/>
<path d="M82.6312 7.36722H79.0472V10.9512H82.6312V7.36722Z" fill="white"/>
<path d="M89.7992 7.36722H86.2152V10.9512H89.7992V7.36722Z" fill="white"/>
<path d="M3.78322 10.9512H0.199219V14.5352H3.78322V10.9512Z" fill="white"/>
<path d="M10.9512 10.9512H7.36722V14.5352H10.9512V10.9512Z" fill="white"/>
<path d="M14.5352 10.9512H10.9512V14.5352H14.5352V10.9512Z" fill="white"/>
<path d="M18.1192 10.9512H14.5352V14.5352H18.1192V10.9512Z" fill="white"/>
<path d="M25.2872 10.9512H21.7032V14.5352H25.2872V10.9512Z" fill="white"/>
<path d="M39.6232 10.9512H36.0392V14.5352H39.6232V10.9512Z" fill="white"/>
<path d="M46.7912 10.9512H43.2072V14.5352H46.7912V10.9512Z" fill="white"/>
<path d="M50.3752 10.9512H46.7912V14.5352H50.3752V10.9512Z" fill="white"/>
<path d="M61.1272 10.9512H57.5432V14.5352H61.1272V10.9512Z" fill="white"/>
<path d="M68.2952 10.9512H64.7112V14.5352H68.2952V10.9512Z" fill="white"/>
<path d="M75.4632 10.9512H71.8792V14.5352H75.4632V10.9512Z" fill="white"/>
<path d="M79.0472 10.9512H75.4632V14.5352H79.0472V10.9512Z" fill="white"/>
<path d="M82.6312 10.9512H79.0472V14.5352H82.6312V10.9512Z" fill="white"/>
<path d="M89.7992 10.9512H86.2152V14.5352H89.7992V10.9512Z" fill="white"/>
<path d="M3.78322 14.5352H0.199219V18.1192H3.78322V14.5352Z" fill="white"/>
<path d="M10.9512 14.5352H7.36722V18.1192H10.9512V14.5352Z" fill="white"/>
<path d="M14.5352 14.5352H10.9512V18.1192H14.5352V14.5352Z" fill="white"/>
<path d="M18.1192 14.5352H14.5352V18.1192H18.1192V14.5352Z" fill="white"/>
<path d="M25.2872 14.5352H21.7032V18.1192H25.2872V14.5352Z" fill="white"/>
<path d="M32.4552 14.5352H28.8712V18.1192H32.4552V14.5352Z" fill="white"/>
<path d="M36.0392 14.5352H32.4552V18.1192H36.0392V14.5352Z" fill="white"/>
<path d="M39.6232 14.5352H36.0392V18.1192H39.6232V14.5352Z" fill="white"/>
<path d="M53.9592 14.5352H50.3752V18.1192H53.9592V14.5352Z" fill="white"/>
<path d="M68.2952 14.5352H64.7112V18.1192H68.2952V14.5352Z" fill="white"/>
<path d="M75.4632 14.5352H71.8792V18.1192H75.4632V14.5352Z" fill="white"/>
<path d="M79.0472 14.5352H75.4632V18.1192H79.0472V14.5352Z" fill="white"/>
<path d="M82.6312 14.5352H79.0472V18.1192H82.6312V14.5352Z" fill="white"/>
<path d="M89.7992 14.5352H86.2152V18.1192H89.7992V14.5352Z" fill="white"/>
<path d="M3.78322 18.1192H0.199219V21.7032H3.78322V18.1192Z" fill="white"/>
<path d="M25.2872 18.1192H21.7032V21.7032H25.2872V18.1192Z" fill="white"/>
<path d="M43.2072 18.1192H39.6232V21.7032H43.2072V18.1192Z" fill="white"/>
<path d="M50.3752 18.1192H46.7912V21.7032H50.3752V18.1192Z" fill="white"/>
<path d="M53.9592 18.1192H50.3752V21.7032H53.9592V18.1192Z" fill="white"/>
<path d="M61.1272 18.1192H57.5432V21.7032H61.1272V18.1192Z" fill="white"/>
<path d="M68.2952 18.1192H64.7112V21.7032H68.2952V18.1192Z" fill="white"/>
<path d="M89.7992 18.1192H86.2152V21.7032H89.7992V18.1192Z" fill="white"/>
<path d="M3.78322 21.7032H0.199219V25.2872H3.78322V21.7032Z" fill="white"/>
<path d="M7.36722 21.7032H3.78322V25.2872H7.36722V21.7032Z" fill="white"/>
<path d="M10.9512 21.7032H7.36722V25.2872H10.9512V21.7032Z" fill="white"/>
<path d="M14.5352 21.7032H10.9512V25.2872H14.5352V21.7032Z" fill="white"/>
<path d="M18.1192 21.7032H14.5352V25.2872H18.1192V21.7032Z" fill="white"/>
<path d="M21.7032 21.7032H18.1192V25.2872H21.7032V21.7032Z" fill="white"/>
<path d="M25.2872 21.7032H21.7032V25.2872H25.2872V21.7032Z" fill="white"/>
<path d="M32.4552 21.7032H28.8712V25.2872H32.4552V21.7032Z" fill="white"/>
<path d="M39.6232 21.7032H36.0392V25.2872H39.6232V21.7032Z" fill="white"/>
<path d="M46.7912 21.7032H43.2072V25.2872H46.7912V21.7032Z" fill="white"/>
<path d="M53.9592 21.7032H50.3752V25.2872H53.9592V21.7032Z" fill="white"/>
<path d="M61.1272 21.7032H57.5432V25.2872H61.1272V21.7032Z" fill="white"/>
<path d="M68.2952 21.7032H64.7112V25.2872H68.2952V21.7032Z" fill="white"/>
<path d="M71.8792 21.7032H68.2952V25.2872H71.8792V21.7032Z" fill="white"/>
<path d="M75.4632 21.7032H71.8792V25.2872H75.4632V21.7032Z" fill="white"/>
<path d="M79.0472 21.7032H75.4632V25.2872H79.0472V21.7032Z" fill="white"/>
<path d="M82.6312 21.7032H79.0472V25.2872H82.6312V21.7032Z" fill="white"/>
<path d="M86.2152 21.7032H82.6312V25.2872H86.2152V21.7032Z" fill="white"/>
<path d="M89.7992 21.7032H86.2152V25.2872H89.7992V21.7032Z" fill="white"/>
<path d="M36.0392 25.2872H32.4552V28.8712H36.0392V25.2872Z" fill="white"/>
<path d="M43.2072 25.2872H39.6232V28.8712H43.2072V25.2872Z" fill="white"/>
<path d="M46.7912 25.2872H43.2072V28.8712H46.7912V25.2872Z" fill="white"/>
<path d="M61.1272 25.2872H57.5432V28.8712H61.1272V25.2872Z" fill="white"/>
<path d="M7.36722 28.8712H3.78322V32.4552H7.36722V28.8712Z" fill="white"/>
<path d="M18.1192 28.8712H14.5352V32.4552H18.1192V28.8712Z" fill="white"/>
<path d="M25.2872 28.8712H21.7032V32.4552H25.2872V28.8712Z" fill="white"/>
<path d="M46.7912 28.8712H43.2072V32.4552H46.7912V28.8712Z" fill="white"/>
<path d="M53.9592 28.8712H50.3752V32.4552H53.9592V28.8712Z" fill="white"/>
<path d="M61.1272 28.8712H57.5432V32.4552H61.1272V28.8712Z" fill="white"/>
<path d="M64.7112 28.8712H61.1272V32.4552H64.7112V28.8712Z" fill="white"/>
<path d="M75.4632 28.8712H71.8792V32.4552H75.4632V28.8712Z" fill="white"/>
<path d="M82.6312 28.8712H79.0472V32.4552H82.6312V28.8712Z" fill="white"/>
<path d="M89.7992 28.8712H86.2152V32.4552H89.7992V28.8712Z" fill="white"/>
<path d="M3.78322 32.4552H0.199219V36.0392H3.78322V32.4552Z" fill="white"/>
<path d="M21.7032 32.4552H18.1192V36.0392H21.7032V32.4552Z" fill="white"/>
<path d="M32.4552 32.4552H28.8712V36.0392H32.4552V32.4552Z" fill="white"/>
<path d="M36.0392 32.4552H32.4552V36.0392H36.0392V32.4552Z" fill="white"/>
<path d="M39.6232 32.4552H36.0392V36.0392H39.6232V32.4552Z" fill="white"/>
<path d="M46.7912 32.4552H43.2072V36.0392H46.7912V32.4552Z" fill="white"/>
<path d="M71.8792 32.4552H68.2952V36.0392H71.8792V32.4552Z" fill="white"/>
<path d="M82.6312 32.4552H79.0472V36.0392H82.6312V32.4552Z" fill="white"/>
<path d="M89.7992 32.4552H86.2152V36.0392H89.7992V32.4552Z" fill="white"/>
<path d="M7.36722 36.0392H3.78322V39.6232H7.36722V36.0392Z" fill="white"/>
<path d="M14.5352 36.0392H10.9512V39.6232H14.5352V36.0392Z" fill="white"/>
<path d="M21.7032 36.0392H18.1192V39.6232H21.7032V36.0392Z" fill="white"/>
<path d="M25.2872 36.0392H21.7032V39.6232H25.2872V36.0392Z" fill="white"/>
<path d="M46.7912 36.0392H43.2072V39.6232H46.7912V36.0392Z" fill="white"/>
<path d="M57.5432 36.0392H53.9592V39.6232H57.5432V36.0392Z" fill="white"/>
<path d="M61.1272 36.0392H57.5432V39.6232H61.1272V36.0392Z" fill="white"/>
<path d="M64.7112 36.0392H61.1272V39.6232H64.7112V36.0392Z" fill="white"/>
<path d="M71.8792 36.0392H68.2952V39.6232H71.8792V36.0392Z" fill="white"/>
<path d="M79.0472 36.0392H75.4632V39.6232H79.0472V36.0392Z" fill="white"/>
<path d="M82.6312 36.0392H79.0472V39.6232H82.6312V36.0392Z" fill="white"/>
<path d="M89.7992 36.0392H86.2152V39.6232H89.7992V36.0392Z" fill="white"/>
<path d="M3.78322 39.6232H0.199219V43.2072H3.78322V39.6232Z" fill="white"/>
<path d="M7.36722 39.6232H3.78322V43.2072H7.36722V39.6232Z" fill="white"/>
<path d="M10.9512 39.6232H7.36722V43.2072H10.9512V39.6232Z" fill="white"/>
<path d="M32.4552 39.6232H28.8712V43.2072H32.4552V39.6232Z" fill="white"/>
<path d="M39.6232 39.6232H36.0392V43.2072H39.6232V39.6232Z" fill="white"/>
<path d="M50.3752 39.6232H46.7912V43.2072H50.3752V39.6232Z" fill="white"/>
<path d="M57.5432 39.6232H53.9592V43.2072H57.5432V39.6232Z" fill="white"/>
<path d="M64.7112 39.6232H61.1272V43.2072H64.7112V39.6232Z" fill="white"/>
<path d="M68.2952 39.6232H64.7112V43.2072H68.2952V39.6232Z" fill="white"/>
<path d="M75.4632 39.6232H71.8792V43.2072H75.4632V39.6232Z" fill="white"/>
<path d="M79.0472 39.6232H75.4632V43.2072H79.0472V39.6232Z" fill="white"/>
<path d="M86.2152 39.6232H82.6312V43.2072H86.2152V39.6232Z" fill="white"/>
<path d="M3.78322 43.2072H0.199219V46.7912H3.78322V43.2072Z" fill="white"/>
<path d="M7.36722 43.2072H3.78322V46.7912H7.36722V43.2072Z" fill="white"/>
<path d="M14.5352 43.2072H10.9512V46.7912H14.5352V43.2072Z" fill="white"/>
<path d="M18.1192 43.2072H14.5352V46.7912H18.1192V43.2072Z" fill="white"/>
<path d="M21.7032 43.2072H18.1192V46.7912H21.7032V43.2072Z" fill="white"/>
<path d="M25.2872 43.2072H21.7032V46.7912H25.2872V43.2072Z" fill="white"/>
<path d="M32.4552 43.2072H28.8712V46.7912H32.4552V43.2072Z" fill="white"/>
<path d="M39.6232 43.2072H36.0392V46.7912H39.6232V43.2072Z" fill="white"/>
<path d="M61.1272 43.2072H57.5432V46.7912H61.1272V43.2072Z" fill="white"/>
<path d="M64.7112 43.2072H61.1272V46.7912H64.7112V43.2072Z" fill="white"/>
<path d="M68.2952 43.2072H64.7112V46.7912H68.2952V43.2072Z" fill="white"/>
<path d="M71.8792 43.2072H68.2952V46.7912H71.8792V43.2072Z" fill="white"/>
<path d="M89.7992 43.2072H86.2152V46.7912H89.7992V43.2072Z" fill="white"/>
<path d="M7.36722 46.7912H3.78322V50.3752H7.36722V46.7912Z" fill="white"/>
<path d="M14.5352 46.7912H10.9512V50.3752H14.5352V46.7912Z" fill="white"/>
<path d="M18.1192 46.7912H14.5352V50.3752H18.1192V46.7912Z" fill="white"/>
<path d="M36.0392 46.7912H32.4552V50.3752H36.0392V46.7912Z" fill="white"/>
<path d="M43.2072 46.7912H39.6232V50.3752H43.2072V46.7912Z" fill="white"/>
<path d="M53.9592 46.7912H50.3752V50.3752H53.9592V46.7912Z" fill="white"/>
<path d="M64.7112 46.7912H61.1272V50.3752H64.7112V46.7912Z" fill="white"/>
<path d="M71.8792 46.7912H68.2952V50.3752H71.8792V46.7912Z" fill="white"/>
<path d="M82.6312 46.7912H79.0472V50.3752H82.6312V46.7912Z" fill="white"/>
<path d="M3.78322 50.3752H0.199219V53.9592H3.78322V50.3752Z" fill="white"/>
<path d="M21.7032 50.3752H18.1192V53.9592H21.7032V50.3752Z" fill="white"/>
<path d="M25.2872 50.3752H21.7032V53.9592H25.2872V50.3752Z" fill="white"/>
<path d="M39.6232 50.3752H36.0392V53.9592H39.6232V50.3752Z" fill="white"/>
<path d="M43.2072 50.3752H39.6232V53.9592H43.2072V50.3752Z" fill="white"/>
<path d="M46.7912 50.3752H43.2072V53.9592H46.7912V50.3752Z" fill="white"/>
<path d="M50.3752 50.3752H46.7912V53.9592H50.3752V50.3752Z" fill="white"/>
<path d="M68.2952 50.3752H64.7112V53.9592H68.2952V50.3752Z" fill="white"/>
<path d="M71.8792 50.3752H68.2952V53.9592H71.8792V50.3752Z" fill="white"/>
<path d="M75.4632 50.3752H71.8792V53.9592H75.4632V50.3752Z" fill="white"/>
<path d="M79.0472 50.3752H75.4632V53.9592H79.0472V50.3752Z" fill="white"/>
<path d="M10.9512 53.9592H7.36722V57.5432H10.9512V53.9592Z" fill="white"/>
<path d="M21.7032 53.9592H18.1192V57.5432H21.7032V53.9592Z" fill="white"/>
<path d="M28.8712 53.9592L25.2872 53.9592V57.5432H28.8712V53.9592Z" fill="white"/>
<path d="M36.0392 53.9592L32.4552 53.9592V57.5432H36.0392V53.9592Z" fill="white"/>
<path d="M39.6232 53.9592H36.0392V57.5432H39.6232V53.9592Z" fill="white"/>
<path d="M46.7912 53.9592H43.2072V57.5432H46.7912V53.9592Z" fill="white"/>
<path d="M50.3752 53.9592H46.7912V57.5432H50.3752V53.9592Z" fill="white"/>
<path d="M57.5432 53.9592H53.9592V57.5432H57.5432V53.9592Z" fill="white"/>
<path d="M64.7112 53.9592L61.1272 53.9592V57.5432H64.7112V53.9592Z" fill="white"/>
<path d="M75.4632 53.9592H71.8792V57.5432H75.4632V53.9592Z" fill="white"/>
<path d="M79.0472 53.9592H75.4632V57.5432H79.0472V53.9592Z" fill="white"/>
<path d="M82.6312 53.9592L79.0472 53.9592V57.5432H82.6312V53.9592Z" fill="white"/>
<path d="M86.2152 53.9592H82.6312V57.5432H86.2152V53.9592Z" fill="white"/>
<path d="M14.5352 57.5432H10.9512V61.1272H14.5352V57.5432Z" fill="white"/>
<path d="M18.1192 57.5432H14.5352V61.1272H18.1192V57.5432Z" fill="white"/>
<path d="M21.7032 57.5432H18.1192V61.1272H21.7032V57.5432Z" fill="white"/>
<path d="M25.2872 57.5432H21.7032V61.1272H25.2872V57.5432Z" fill="white"/>
<path d="M32.4552 57.5432H28.8712V61.1272H32.4552V57.5432Z" fill="white"/>
<path d="M36.0392 57.5432H32.4552V61.1272H36.0392V57.5432Z" fill="white"/>
<path d="M39.6232 57.5432H36.0392V61.1272H39.6232V57.5432Z" fill="white"/>
<path d="M43.2072 57.5432H39.6232V61.1272H43.2072V57.5432Z" fill="white"/>
<path d="M61.1272 57.5432H57.5432V61.1272H61.1272V57.5432Z" fill="white"/>
<path d="M64.7112 57.5432H61.1272V61.1272H64.7112V57.5432Z" fill="white"/>
<path d="M68.2952 57.5432H64.7112V61.1272H68.2952V57.5432Z" fill="white"/>
<path d="M71.8792 57.5432H68.2952V61.1272H71.8792V57.5432Z" fill="white"/>
<path d="M75.4632 57.5432H71.8792V61.1272H75.4632V57.5432Z" fill="white"/>
<path d="M79.0472 57.5432H75.4632V61.1272H79.0472V57.5432Z" fill="white"/>
<path d="M89.7992 57.5432H86.2152V61.1272H89.7992V57.5432Z" fill="white"/>
<path d="M36.0392 61.1272H32.4552V64.7112H36.0392V61.1272Z" fill="white"/>
<path d="M39.6232 61.1272H36.0392V64.7112H39.6232V61.1272Z" fill="white"/>
<path d="M43.2072 61.1272H39.6232V64.7112H43.2072V61.1272Z" fill="white"/>
<path d="M46.7912 61.1272H43.2072V64.7112H46.7912V61.1272Z" fill="white"/>
<path d="M50.3752 61.1272H46.7912V64.7112H50.3752V61.1272Z" fill="white"/>
<path d="M53.9592 61.1272H50.3752V64.7112H53.9592V61.1272Z" fill="white"/>
<path d="M61.1272 61.1272H57.5432V64.7112H61.1272V61.1272Z" fill="white"/>
<path d="M75.4632 61.1272H71.8792V64.7112H75.4632V61.1272Z" fill="white"/>
<path d="M82.6312 61.1272H79.0472V64.7112H82.6312V61.1272Z" fill="white"/>
<path d="M86.2152 61.1272H82.6312V64.7112H86.2152V61.1272Z" fill="white"/>
<path d="M89.7992 61.1272H86.2152V64.7112H89.7992V61.1272Z" fill="white"/>
<path d="M3.78322 64.7112H0.199219V68.2952H3.78322V64.7112Z" fill="white"/>
<path d="M7.36722 64.7112H3.78322V68.2952H7.36722V64.7112Z" fill="white"/>
<path d="M10.9512 64.7112H7.36722V68.2952H10.9512V64.7112Z" fill="white"/>
<path d="M14.5352 64.7112H10.9512V68.2952H14.5352V64.7112Z" fill="white"/>
<path d="M18.1192 64.7112H14.5352V68.2952H18.1192V64.7112Z" fill="white"/>
<path d="M21.7032 64.7112H18.1192V68.2952H21.7032V64.7112Z" fill="white"/>
<path d="M25.2872 64.7112H21.7032V68.2952H25.2872V64.7112Z" fill="white"/>
<path d="M36.0392 64.7112H32.4552V68.2952H36.0392V64.7112Z" fill="white"/>
<path d="M46.7912 64.7112H43.2072V68.2952H46.7912V64.7112Z" fill="white"/>
<path d="M50.3752 64.7112H46.7912V68.2952H50.3752V64.7112Z" fill="white"/>
<path d="M53.9592 64.7112H50.3752V68.2952H53.9592V64.7112Z" fill="white"/>
<path d="M61.1272 64.7112H57.5432V68.2952H61.1272V64.7112Z" fill="white"/>
<path d="M68.2952 64.7112H64.7112V68.2952H68.2952V64.7112Z" fill="white"/>
<path d="M75.4632 64.7112H71.8792V68.2952H75.4632V64.7112Z" fill="white"/>
<path d="M3.78322 68.2952H0.199219V71.8792H3.78322V68.2952Z" fill="white"/>
<path d="M25.2872 68.2952H21.7032V71.8792H25.2872V68.2952Z" fill="white"/>
<path d="M39.6232 68.2952H36.0392V71.8792H39.6232V68.2952Z" fill="white"/>
<path d="M43.2072 68.2952H39.6232V71.8792H43.2072V68.2952Z" fill="white"/>
<path d="M53.9592 68.2952H50.3752V71.8792H53.9592V68.2952Z" fill="white"/>
<path d="M61.1272 68.2952H57.5432V71.8792H61.1272V68.2952Z" fill="white"/>
<path d="M75.4632 68.2952H71.8792V71.8792H75.4632V68.2952Z" fill="white"/>
<path d="M79.0472 68.2952H75.4632V71.8792H79.0472V68.2952Z" fill="white"/>
<path d="M82.6312 68.2952H79.0472V71.8792H82.6312V68.2952Z" fill="white"/>
<path d="M86.2152 68.2952H82.6312V71.8792H86.2152V68.2952Z" fill="white"/>
<path d="M89.7992 68.2952H86.2152V71.8792H89.7992V68.2952Z" fill="white"/>
<path d="M3.78322 71.8792H0.199219V75.4632H3.78322V71.8792Z" fill="white"/>
<path d="M10.9512 71.8792H7.36722V75.4632H10.9512V71.8792Z" fill="white"/>
<path d="M14.5352 71.8792H10.9512V75.4632H14.5352V71.8792Z" fill="white"/>
<path d="M18.1192 71.8792H14.5352V75.4632H18.1192V71.8792Z" fill="white"/>
<path d="M25.2872 71.8792H21.7032V75.4632H25.2872V71.8792Z" fill="white"/>
<path d="M32.4552 71.8792H28.8712V75.4632H32.4552V71.8792Z" fill="white"/>
<path d="M39.6232 71.8792H36.0392V75.4632H39.6232V71.8792Z" fill="white"/>
<path d="M43.2072 71.8792H39.6232V75.4632H43.2072V71.8792Z" fill="white"/>
<path d="M53.9592 71.8792H50.3752V75.4632H53.9592V71.8792Z" fill="white"/>
<path d="M57.5432 71.8792H53.9592V75.4632H57.5432V71.8792Z" fill="white"/>
<path d="M61.1272 71.8792H57.5432V75.4632H61.1272V71.8792Z" fill="white"/>
<path d="M64.7112 71.8792H61.1272V75.4632H64.7112V71.8792Z" fill="white"/>
<path d="M68.2952 71.8792H64.7112V75.4632H68.2952V71.8792Z" fill="white"/>
<path d="M71.8792 71.8792H68.2952V75.4632H71.8792V71.8792Z" fill="white"/>
<path d="M75.4632 71.8792H71.8792V75.4632H75.4632V71.8792Z" fill="white"/>
<path d="M79.0472 71.8792H75.4632V75.4632H79.0472V71.8792Z" fill="white"/>
<path d="M82.6312 71.8792H79.0472V75.4632H82.6312V71.8792Z" fill="white"/>
<path d="M86.2152 71.8792H82.6312V75.4632H86.2152V71.8792Z" fill="white"/>
<path d="M3.78322 75.4632H0.199219V79.0472H3.78322V75.4632Z" fill="white"/>
<path d="M10.9512 75.4632H7.36722V79.0472H10.9512V75.4632Z" fill="white"/>
<path d="M14.5352 75.4632H10.9512V79.0472H14.5352V75.4632Z" fill="white"/>
<path d="M18.1192 75.4632H14.5352V79.0472H18.1192V75.4632Z" fill="white"/>
<path d="M25.2872 75.4632H21.7032V79.0472H25.2872V75.4632Z" fill="white"/>
<path d="M36.0392 75.4632H32.4552V79.0472H36.0392V75.4632Z" fill="white"/>
<path d="M39.6232 75.4632H36.0392V79.0472H39.6232V75.4632Z" fill="white"/>
<path d="M79.0472 75.4632H75.4632V79.0472H79.0472V75.4632Z" fill="white"/>
<path d="M82.6312 75.4632H79.0472V79.0472H82.6312V75.4632Z" fill="white"/>
<path d="M3.78322 79.0472H0.199219V82.6312H3.78322V79.0472Z" fill="white"/>
<path d="M10.9512 79.0472H7.36722V82.6312H10.9512V79.0472Z" fill="white"/>
<path d="M14.5352 79.0472H10.9512V82.6312H14.5352V79.0472Z" fill="white"/>
<path d="M18.1192 79.0472H14.5352V82.6312H18.1192V79.0472Z" fill="white"/>
<path d="M25.2872 79.0472H21.7032V82.6312H25.2872V79.0472Z" fill="white"/>
<path d="M39.6232 79.0472H36.0392V82.6312H39.6232V79.0472Z" fill="white"/>
<path d="M53.9592 79.0472H50.3752V82.6312H53.9592V79.0472Z" fill="white"/>
<path d="M68.2952 79.0472H64.7112V82.6312H68.2952V79.0472Z" fill="white"/>
<path d="M79.0472 79.0472H75.4632V82.6312H79.0472V79.0472Z" fill="white"/>
<path d="M82.6312 79.0472H79.0472V82.6312H82.6312V79.0472Z" fill="white"/>
<path d="M3.78322 82.6312H0.199219V86.2152H3.78322V82.6312Z" fill="white"/>
<path d="M25.2872 82.6312H21.7032V86.2152H25.2872V82.6312Z" fill="white"/>
<path d="M32.4552 82.6312H28.8712V86.2152H32.4552V82.6312Z" fill="white"/>
<path d="M36.0392 82.6312H32.4552V86.2152H36.0392V82.6312Z" fill="white"/>
<path d="M39.6232 82.6312H36.0392V86.2152H39.6232V82.6312Z" fill="white"/>
<path d="M43.2072 82.6312H39.6232V86.2152H43.2072V82.6312Z" fill="white"/>
<path d="M46.7912 82.6312H43.2072V86.2152H46.7912V82.6312Z" fill="white"/>
<path d="M50.3752 82.6312H46.7912V86.2152H50.3752V82.6312Z" fill="white"/>
<path d="M53.9592 82.6312H50.3752V86.2152H53.9592V82.6312Z" fill="white"/>
<path d="M64.7112 82.6312H61.1272V86.2152H64.7112V82.6312Z" fill="white"/>
<path d="M68.2952 82.6312H64.7112V86.2152H68.2952V82.6312Z" fill="white"/>
<path d="M71.8792 82.6312H68.2952V86.2152H71.8792V82.6312Z" fill="white"/>
<path d="M75.4632 82.6312H71.8792V86.2152H75.4632V82.6312Z" fill="white"/>
<path d="M79.0472 82.6312H75.4632V86.2152H79.0472V82.6312Z" fill="white"/>
<path d="M86.2152 82.6312H82.6312V86.2152H86.2152V82.6312Z" fill="white"/>
<path d="M89.7992 82.6312H86.2152V86.2152H89.7992V82.6312Z" fill="white"/>
<path d="M3.78322 86.2152H0.199219V89.7992H3.78322V86.2152Z" fill="white"/>
<path d="M7.36722 86.2152H3.78322V89.7992H7.36722V86.2152Z" fill="white"/>
<path d="M10.9512 86.2152H7.36722V89.7992H10.9512V86.2152Z" fill="white"/>
<path d="M14.5352 86.2152H10.9512V89.7992H14.5352V86.2152Z" fill="white"/>
<path d="M18.1192 86.2152H14.5352V89.7992H18.1192V86.2152Z" fill="white"/>
<path d="M21.7032 86.2152H18.1192V89.7992H21.7032V86.2152Z" fill="white"/>
<path d="M25.2872 86.2152H21.7032V89.7992H25.2872V86.2152Z" fill="white"/>
<path d="M36.0392 86.2152H32.4552V89.7992H36.0392V86.2152Z" fill="white"/>
<path d="M39.6232 86.2152H36.0392V89.7992H39.6232V86.2152Z" fill="white"/>
<path d="M50.3752 86.2152H46.7912V89.7992H50.3752V86.2152Z" fill="white"/>
<path d="M53.9592 86.2152H50.3752V89.7992H53.9592V86.2152Z" fill="white"/>
<path d="M61.1272 86.2152H57.5432V89.7992H61.1272V86.2152Z" fill="white"/>
<path d="M64.7112 86.2152H61.1272V89.7992H64.7112V86.2152Z" fill="white"/>
<path d="M68.2952 86.2152H64.7112V89.7992H68.2952V86.2152Z" fill="white"/>
<path d="M82.6312 86.2152H79.0472V89.7992H82.6312V86.2152Z" fill="white"/>
<path d="M89.7992 86.2152H86.2152V89.7992H89.7992V86.2152Z" fill="white"/>
</svg>
