<svg width="32" height="24" viewBox="0 0 32 24" fill="none" xmlns="http://www.w3.org/2000/svg">
<mask id="mask0_1_546" style="mask-type:luminance" maskUnits="userSpaceOnUse" x="0" y="0" width="32" height="24">
<rect width="32" height="24" rx="4" fill="white"/>
</mask>
<g mask="url(#mask0_1_546)">
<rect width="32" height="24" rx="4" fill="#00762F"/>
<path d="M6.98172 4.57551C6.98172 4.57551 7.49241 6.90484 6.98172 6.45809C6.47102 6.01134 5.33637 7.71387 6.52166 7.08598C7.70694 6.45809 7.91558 5.80729 7.91558 7.08598C7.91558 8.36467 8.48236 7.71409 7.50201 8.66454C6.52166 9.615 10.9381 9.62984 8.95988 10.2248C6.98172 10.8197 6.04414 12.0881 7.50201 11.6218C8.95988 11.1554 11.3069 9.18 10.6943 8.66454C10.0817 8.14908 10.3828 8.25468 10.3828 7.08598C10.3828 5.91728 9.99393 5.61589 9.48694 5.31405C8.97996 5.01222 11.4594 7.35551 12.2879 5.96551C13.1163 4.57551 13.0166 5.47293 13.6155 5.96551C14.2143 6.45809 15.1469 7.05259 15.1469 5.96551C15.1469 4.87844 16.3765 2.78089 16.3765 4.93343C16.3765 7.08598 17.9198 8.19881 17.9198 6.75643C17.9198 5.31405 19.3392 3.90136 19.3392 4.93343C19.3392 5.96551 20.1541 5.91772 20.8505 5.61589C21.5469 5.31405 21.488 4.51768 21.488 6.75643C21.488 8.99518 21.7798 12.4938 20.8505 12.1989C19.9212 11.9039 20.7898 10.5727 19.9197 8.66454C19.0495 6.75643 20.8064 6.74966 18.9906 9.18571C17.1748 11.6218 17.4632 11.2638 16.9198 10.2248C16.3765 9.18571 18.6928 8.14337 16.9198 8.66454C15.1469 9.18571 16.1107 12.103 15.6288 11.1639C15.1469 10.2248 13.9159 5.23614 13.7657 7.73046C13.6155 10.2248 14.2388 11.6218 12.9198 11.6218C11.6009 11.6218 10.4852 11.7226 11.3865 11.1639C12.2879 10.6052 12.2879 8.66454 12.2879 8.66454" stroke="white"/>
<path fill-rule="evenodd" clip-rule="evenodd" d="M13.9339 15.856C13.1207 15.9545 9.01133 15.9376 7.78372 15.6414C7.50869 15.5834 7.66592 16.8377 7.84389 17.126C8.02186 17.4142 9.41892 17.703 9.90603 17.7695C10.324 17.8266 11.9343 17.7368 13.6082 17.6434C13.8852 17.6279 14.1639 17.6124 14.4392 17.5974C15.9046 17.5176 18.0454 17.6567 19.165 17.7294C19.527 17.7529 19.7822 17.7695 19.8733 17.7695C20.2164 17.7695 20.1906 17.8853 20.1388 18.118C20.1343 18.1381 20.1296 18.159 20.125 18.1808C20.0665 18.4555 20.3741 19.0455 20.5097 19.101C20.6453 19.1564 21.654 19.101 22.2036 18.8889C22.5164 18.7681 22.5534 18.7849 22.6349 18.8217C22.6965 18.8495 22.7836 18.8889 23.0349 18.8889C23.4124 18.8889 23.432 18.3482 23.4458 17.9665C23.4534 17.7583 23.4592 17.5974 23.5205 17.5974C23.5893 17.5974 23.6816 17.8015 23.768 17.9927C23.8997 18.2841 24.0178 18.5452 24.0178 18.0057C24.0178 17.1126 22.9675 15.9429 22.6241 16.0365C22.3833 16.1021 21.9868 16.0297 21.7177 15.9806C21.6029 15.9596 21.5113 15.9429 21.4648 15.9429C21.3974 15.9429 21.4176 15.9266 21.4622 15.8906C21.5205 15.8436 21.6204 15.763 21.6204 15.6414C21.6204 15.4269 21.4162 15.3965 21.2463 15.3965C21.0763 15.3965 20.9855 15.5354 20.9855 15.6414C20.9855 15.729 20.9448 15.8541 20.8572 15.8529C20.8211 15.8525 20.7815 15.8519 20.7387 15.8514C19.3565 15.8331 14.638 15.7707 13.9339 15.856ZM20.875 17.7471C20.8749 17.7469 20.9831 17.6842 21.2339 17.3751C21.5116 17.0328 21.6098 17.1422 21.7122 17.2563C21.7649 17.3151 21.8188 17.3751 21.899 17.3751C22.1346 17.3751 22.4458 17.3751 22.6482 17.5469C22.8506 17.7187 22.3818 17.9548 22.2453 17.9548C22.1775 17.9548 22.1274 17.9125 22.077 17.8699C22.0257 17.8266 21.974 17.783 21.903 17.783C21.8193 17.783 21.7489 17.8437 21.6917 17.8929C21.6527 17.9265 21.6198 17.9548 21.5932 17.9548C21.5699 17.9548 21.5183 17.9253 21.4514 17.8872C21.3292 17.8174 21.1561 17.7187 21.0138 17.7187C20.9249 17.7187 20.8751 17.7473 20.875 17.7471Z" fill="white"/>
<path d="M7.78372 15.6414L7.80719 15.5442L7.80436 15.5436L7.78372 15.6414ZM13.9339 15.856L13.9459 15.9553L13.9339 15.856ZM7.84389 17.126L7.92898 17.0734L7.84389 17.126ZM9.90603 17.7695L9.91956 17.6704L9.90603 17.7695ZM13.6082 17.6434L13.6027 17.5435L13.6082 17.6434ZM14.4392 17.5974L14.4446 17.6972L14.4392 17.5974ZM19.165 17.7294L19.1585 17.8292L19.165 17.7294ZM20.1388 18.118L20.2364 18.1397V18.1397L20.1388 18.118ZM20.125 18.1808L20.0272 18.16V18.16L20.125 18.1808ZM22.2036 18.8889L22.2396 18.9822L22.2036 18.8889ZM22.6349 18.8217L22.676 18.7305V18.7305L22.6349 18.8217ZM23.4458 17.9665L23.5458 17.9702V17.9702L23.4458 17.9665ZM23.768 17.9927L23.8591 17.9515V17.9515L23.768 17.9927ZM22.6241 16.0365L22.5978 15.94V15.94L22.6241 16.0365ZM21.7177 15.9806L21.6997 16.079L21.7177 15.9806ZM21.4622 15.8906L21.3994 15.8128V15.8128L21.4622 15.8906ZM20.7387 15.8514L20.7374 15.9514L20.7387 15.8514ZM21.2339 17.3751L21.1562 17.3121V17.3121L21.2339 17.3751ZM20.875 17.7471L20.9617 17.6973L20.9615 17.697L20.875 17.7471ZM21.7122 17.2563L21.6378 17.3231L21.6378 17.3231L21.7122 17.2563ZM22.077 17.8699L22.0124 17.9463L22.077 17.8699ZM21.6917 17.8929L21.757 17.9687L21.6917 17.8929ZM21.4514 17.8872L21.501 17.8003L21.4514 17.8872ZM20.8572 15.8529L20.8559 15.9529L20.8572 15.8529ZM7.76027 15.7386C8.38646 15.8897 9.73198 15.9678 11.012 15.9967C12.2935 16.0256 13.5311 16.0055 13.9459 15.9553L13.9219 15.7567C13.5235 15.805 12.2998 15.8257 11.0165 15.7967C9.73157 15.7677 8.40859 15.6893 7.80718 15.5442L7.76027 15.7386ZM7.92898 17.0734C7.89392 17.0166 7.85353 16.8985 7.81828 16.7422C7.78388 16.5897 7.75684 16.4125 7.74362 16.2459C7.73027 16.0777 7.73163 15.9277 7.75039 15.8266C7.76004 15.7747 7.77232 15.7472 7.78045 15.7362C7.78365 15.7319 7.78306 15.7344 7.77711 15.737C7.77016 15.7401 7.76426 15.7395 7.76309 15.7393L7.80436 15.5436C7.76881 15.5361 7.73191 15.5385 7.69713 15.5537C7.66336 15.5684 7.63812 15.5923 7.61964 15.6173C7.58442 15.6649 7.56525 15.7282 7.55375 15.7901C7.5302 15.917 7.53042 16.0876 7.54425 16.2618C7.5582 16.4376 7.58665 16.6243 7.62318 16.7862C7.65887 16.9444 7.70488 17.0911 7.7588 17.1785L7.92898 17.0734ZM9.91956 17.6704C9.68025 17.6378 9.21338 17.5498 8.78506 17.4343C8.57079 17.3766 8.36908 17.3127 8.21137 17.2465C8.13245 17.2134 8.06691 17.1807 8.01715 17.1492C7.96556 17.1165 7.93938 17.0903 7.92898 17.0734L7.7588 17.1785C7.79289 17.2337 7.84931 17.2796 7.91008 17.3181C7.97269 17.3578 8.0493 17.3954 8.13399 17.431C8.3035 17.5021 8.51488 17.5686 8.73301 17.6274C9.16949 17.7451 9.64471 17.8348 9.8925 17.8686L9.91956 17.6704ZM13.6027 17.5435C12.7655 17.5902 11.9453 17.636 11.2821 17.6629C10.6142 17.6901 10.1177 17.6975 9.91956 17.6704L9.8925 17.8686C10.1124 17.8986 10.63 17.8896 11.2902 17.8628C11.9552 17.8357 12.7771 17.7899 13.6138 17.7432L13.6027 17.5435ZM14.4337 17.4975C14.1583 17.5125 13.8796 17.5281 13.6027 17.5435L13.6138 17.7432C13.8908 17.7278 14.1694 17.7122 14.4446 17.6972L14.4337 17.4975ZM19.1715 17.6296C18.0538 17.557 15.9064 17.4173 14.4337 17.4975L14.4446 17.6972C15.9028 17.6178 18.0371 17.7563 19.1585 17.8292L19.1715 17.6296ZM19.8733 17.6695C19.7864 17.6695 19.5362 17.6533 19.1715 17.6296L19.1585 17.8292C19.5177 17.8525 19.7779 17.8695 19.8733 17.8695V17.6695ZM20.2364 18.1397C20.2489 18.0835 20.2618 18.0261 20.2669 17.9753C20.2719 17.9249 20.2712 17.8653 20.243 17.8106C20.2126 17.7517 20.1598 17.7161 20.0974 17.6961C20.0377 17.6768 19.9628 17.6695 19.8733 17.6695V17.8695C19.9553 17.8695 20.0058 17.8767 20.0362 17.8864C20.0506 17.8911 20.0579 17.8955 20.0613 17.8981C20.0641 17.9002 20.0648 17.9015 20.0653 17.9024C20.067 17.9057 20.0716 17.9187 20.0679 17.9554C20.0643 17.9918 20.0545 18.0361 20.0411 18.0962L20.2364 18.1397ZM20.2228 18.2016C20.2273 18.1804 20.2319 18.1599 20.2364 18.1397L20.0411 18.0962C20.0367 18.1163 20.0319 18.1377 20.0272 18.16L20.2228 18.2016ZM20.5476 19.0084C20.5499 19.0093 20.5418 19.0059 20.5237 18.9872C20.5073 18.9702 20.4878 18.9461 20.4662 18.9152C20.4232 18.8536 20.3768 18.7714 20.3355 18.6814C20.2942 18.5914 20.2595 18.4964 20.2386 18.4094C20.2172 18.3201 20.2127 18.2488 20.2228 18.2016L20.0272 18.16C20.008 18.2502 20.0201 18.3557 20.0441 18.456C20.0687 18.5585 20.1084 18.666 20.1537 18.7648C20.199 18.8635 20.2512 18.9564 20.3022 19.0296C20.3276 19.0661 20.3539 19.0993 20.38 19.1263C20.4044 19.1515 20.4357 19.1787 20.4718 19.1935L20.5476 19.0084ZM22.1676 18.7956C21.9054 18.8967 21.5265 18.9626 21.1915 18.9957C21.0251 19.0122 20.8723 19.0204 20.7537 19.0211C20.6943 19.0214 20.6447 19.0199 20.607 19.0168C20.5881 19.0153 20.5732 19.0134 20.5621 19.0115C20.55 19.0094 20.5463 19.0079 20.5476 19.0084L20.4718 19.1935C20.5046 19.2069 20.5492 19.2128 20.5908 19.2161C20.6363 19.2198 20.6921 19.2214 20.7549 19.221C20.8807 19.2203 21.0399 19.2117 21.2112 19.1948C21.5519 19.161 21.9521 19.0931 22.2396 18.9822L22.1676 18.7956ZM22.676 18.7305C22.6571 18.722 22.6312 18.71 22.6009 18.7025C22.5685 18.6946 22.5346 18.6925 22.4953 18.6968C22.422 18.7047 22.3233 18.7355 22.1676 18.7956L22.2396 18.9822C22.3967 18.9215 22.4728 18.9003 22.5167 18.8956C22.5358 18.8936 22.5461 18.895 22.5533 18.8968C22.5626 18.8991 22.5719 18.903 22.5937 18.9128L22.676 18.7305ZM23.0349 18.7889C22.9142 18.7889 22.8371 18.7794 22.7851 18.768C22.7345 18.757 22.7049 18.7436 22.676 18.7305L22.5937 18.9128C22.6265 18.9276 22.6712 18.9478 22.7424 18.9634C22.8121 18.9787 22.9042 18.9889 23.0349 18.9889V18.7889ZM23.3459 17.9629C23.3389 18.1572 23.3304 18.3742 23.2808 18.5426C23.2562 18.6261 23.2241 18.6883 23.1847 18.7287C23.1483 18.7661 23.1021 18.7889 23.0349 18.7889V18.9889C23.1564 18.9889 23.2542 18.9441 23.3281 18.8682C23.399 18.7953 23.4434 18.6985 23.4727 18.5991C23.5307 18.4018 23.539 18.1576 23.5458 17.9702L23.3459 17.9629ZM23.5205 17.4974C23.4505 17.4974 23.4118 17.5472 23.3948 17.5806C23.3782 17.6136 23.3696 17.6531 23.3642 17.6889C23.353 17.7621 23.3496 17.8612 23.3459 17.9629L23.5458 17.9702C23.5496 17.8636 23.5529 17.7781 23.5619 17.7189C23.5665 17.6884 23.5714 17.6747 23.5733 17.6709C23.5749 17.6677 23.5599 17.6974 23.5205 17.6974V17.4974ZM23.8591 17.9515C23.8165 17.8573 23.7699 17.7538 23.7247 17.674C23.7022 17.6345 23.6774 17.5958 23.6508 17.5658C23.6289 17.5412 23.5844 17.4974 23.5205 17.4974V17.6974C23.4911 17.6974 23.4838 17.679 23.5013 17.6987C23.514 17.713 23.5306 17.7373 23.5507 17.7727C23.5904 17.8428 23.6331 17.9369 23.6769 18.0338L23.8591 17.9515ZM23.9178 18.0057C23.9178 18.0716 23.916 18.1237 23.9128 18.1641C23.9095 18.2053 23.905 18.2309 23.901 18.2453C23.899 18.2524 23.8979 18.2537 23.899 18.2518C23.8998 18.2503 23.9056 18.2403 23.9195 18.2313C23.9359 18.2208 23.956 18.2168 23.9749 18.2199C23.9909 18.2225 24.0002 18.2292 24.0021 18.2306C24.0043 18.2323 24.0038 18.2323 24.0005 18.2285C23.9975 18.2249 23.9934 18.2195 23.9882 18.2117C23.9777 18.1959 23.9654 18.1744 23.9514 18.1474C23.9233 18.0933 23.8924 18.0251 23.8591 17.9515L23.6769 18.0338C23.7095 18.1059 23.7428 18.1796 23.7738 18.2396C23.7894 18.2696 23.8055 18.2982 23.8217 18.3225C23.8366 18.345 23.8569 18.3718 23.8825 18.3909C23.8959 18.4009 23.9162 18.4129 23.9426 18.4172C23.9719 18.422 24.0018 18.4161 24.0275 18.3997C24.0702 18.3723 24.0862 18.3255 24.0936 18.2992C24.1108 18.2377 24.1178 18.1404 24.1178 18.0057H23.9178ZM22.6504 16.133C22.6629 16.1296 22.6925 16.1292 22.7453 16.1504C22.796 16.1708 22.8574 16.2069 22.9266 16.259C23.0646 16.3629 23.222 16.5214 23.3708 16.7125C23.6711 17.0982 23.9178 17.5921 23.9178 18.0057H24.1178C24.1178 17.5262 23.8393 16.9887 23.5286 16.5896C23.3719 16.3884 23.2024 16.2162 23.0469 16.0992C22.9693 16.0408 22.8923 15.994 22.8199 15.9648C22.7495 15.9365 22.6711 15.92 22.5978 15.94L22.6504 16.133ZM21.6997 16.079C21.8337 16.1034 22.0041 16.1346 22.1717 16.1511C22.337 16.1674 22.5115 16.1708 22.6504 16.133L22.5978 15.94C22.4959 15.9678 22.3518 15.9679 22.1913 15.9521C22.0332 15.9365 21.8708 15.9069 21.7357 15.8822L21.6997 16.079ZM21.4648 16.0429C21.4793 16.0429 21.5068 16.0458 21.5501 16.0527C21.5917 16.0592 21.642 16.0684 21.6997 16.079L21.7357 15.8822C21.6787 15.8718 21.6258 15.8621 21.5813 15.8551C21.5384 15.8483 21.4968 15.8429 21.4648 15.8429V16.0429ZM21.3994 15.8128C21.3893 15.821 21.3766 15.8311 21.3664 15.8406C21.3612 15.8454 21.3542 15.8522 21.3477 15.8604C21.3422 15.8672 21.3304 15.8828 21.3246 15.9054C21.3174 15.9337 21.3208 15.9699 21.3457 15.9998C21.3654 16.0235 21.3898 16.0322 21.4006 16.0355C21.423 16.0423 21.4476 16.0429 21.4648 16.0429V15.8429C21.4483 15.8429 21.4501 15.8415 21.4587 15.8441C21.4626 15.8453 21.4824 15.8514 21.4994 15.8718C21.5089 15.8833 21.5164 15.8978 21.5196 15.9145C21.5226 15.9308 21.521 15.9449 21.5183 15.9551C21.5136 15.9734 21.5047 15.9842 21.5036 15.9856C21.5014 15.9883 21.5003 15.9891 21.5022 15.9873C21.5063 15.9836 21.5128 15.9783 21.525 15.9685L21.3994 15.8128ZM21.5204 15.6414C21.5204 15.673 21.5079 15.7024 21.4844 15.7323C21.4602 15.7633 21.4293 15.7887 21.3994 15.8128L21.525 15.9685C21.5534 15.9455 21.6016 15.9071 21.6419 15.8556C21.683 15.8031 21.7204 15.7314 21.7204 15.6414H21.5204ZM21.2463 15.4965C21.3291 15.4965 21.4033 15.5046 21.4541 15.5288C21.4776 15.54 21.4928 15.5531 21.5024 15.5677C21.5118 15.582 21.5204 15.6042 21.5204 15.6414H21.7204C21.7204 15.5713 21.7035 15.5093 21.6693 15.4575C21.6354 15.4061 21.5888 15.3714 21.5401 15.3482C21.4463 15.3036 21.3334 15.2965 21.2463 15.2965V15.4965ZM21.0855 15.6414C21.0855 15.5822 21.1396 15.4965 21.2463 15.4965V15.2965C21.0129 15.2965 20.8855 15.4887 20.8855 15.6414H21.0855ZM20.7374 15.9514C20.7802 15.9519 20.8197 15.9525 20.8559 15.9529L20.8585 15.753C20.8224 15.7525 20.7828 15.752 20.74 15.7514L20.7374 15.9514ZM13.9459 15.9553C14.1152 15.9348 14.5358 15.9226 15.1009 15.9167C15.6631 15.9109 16.3615 15.9112 17.0815 15.9149C18.5215 15.9221 20.0463 15.9422 20.7374 15.9514L20.74 15.7514C20.0489 15.7423 18.5234 15.7221 17.0825 15.7149C16.3621 15.7112 15.6625 15.7109 15.0988 15.7167C14.5379 15.7226 14.1046 15.7346 13.9219 15.7567L13.9459 15.9553ZM21.1562 17.3121C21.0331 17.4639 20.9465 17.5533 20.8922 17.6038C20.8651 17.629 20.8462 17.6444 20.835 17.653C20.8294 17.6572 20.8257 17.6598 20.8239 17.6611C20.823 17.6617 20.8224 17.6621 20.8221 17.6622C20.8218 17.6625 20.822 17.6623 20.8214 17.6627C20.8214 17.6627 20.8205 17.6633 20.8195 17.664C20.8192 17.6641 20.8173 17.6654 20.8151 17.6671C20.8144 17.6676 20.8108 17.6703 20.8066 17.6742C20.8041 17.6766 20.7972 17.6843 20.7932 17.6896C20.7852 17.7031 20.7756 17.7584 20.7885 17.7973L20.9615 17.697C20.9744 17.7358 20.9648 17.7912 20.9568 17.8046C20.9528 17.81 20.9459 17.8176 20.9434 17.8201C20.9392 17.824 20.9356 17.8267 20.935 17.8272C20.9327 17.8288 20.9309 17.8301 20.9307 17.8302C20.9301 17.8306 20.9297 17.8309 20.9295 17.8309C20.9294 17.8311 20.9292 17.8311 20.9292 17.8311C20.929 17.8313 20.9299 17.8307 20.9304 17.8304C20.9318 17.8295 20.9338 17.8282 20.9363 17.8265C20.9413 17.8231 20.948 17.8183 20.9565 17.8118C20.9734 17.7989 20.9972 17.7793 21.0285 17.7502C21.091 17.692 21.1839 17.5955 21.3116 17.4381L21.1562 17.3121ZM21.7866 17.1895C21.7625 17.1627 21.7306 17.1265 21.6933 17.0986C21.6538 17.0689 21.602 17.0435 21.5372 17.0446C21.4739 17.0456 21.4127 17.0717 21.3528 17.1151C21.293 17.1583 21.2285 17.223 21.1562 17.3121L21.3116 17.4381C21.3782 17.356 21.4301 17.306 21.47 17.2771C21.5098 17.2483 21.5317 17.2447 21.5404 17.2445C21.5476 17.2444 21.557 17.2463 21.5733 17.2586C21.5919 17.2725 21.6106 17.2928 21.6378 17.3231L21.7866 17.1895ZM21.899 17.2751C21.8863 17.2751 21.8732 17.271 21.855 17.2575C21.8344 17.2422 21.8144 17.2205 21.7866 17.1895L21.6378 17.3231C21.683 17.3735 21.7665 17.4751 21.899 17.4751V17.2751ZM22.7129 17.4706C22.5925 17.3684 22.444 17.3208 22.3021 17.2978C22.1603 17.2749 22.0156 17.2751 21.899 17.2751V17.4751C22.018 17.4751 22.1467 17.4753 22.2701 17.4953C22.3932 17.5152 22.5016 17.5536 22.5835 17.6231L22.7129 17.4706ZM22.2453 18.0548C22.2998 18.0548 22.3698 18.0336 22.4325 18.0076C22.4987 17.9803 22.5712 17.9416 22.6333 17.8957C22.6926 17.8519 22.7554 17.7921 22.7833 17.7187C22.7982 17.6794 22.8039 17.6342 22.7911 17.5873C22.7783 17.5407 22.7499 17.502 22.7129 17.4706L22.5835 17.6231C22.5904 17.629 22.5942 17.6335 22.5961 17.6363C22.597 17.6377 22.5975 17.6387 22.5978 17.6393C22.5981 17.6398 22.5982 17.6401 22.5982 17.6402C22.5982 17.6402 22.5982 17.6402 22.5982 17.6402C22.5982 17.6402 22.5982 17.6402 22.5982 17.6402C22.5982 17.6402 22.5982 17.6403 22.5982 17.6404C22.5982 17.6404 22.5982 17.6406 22.5982 17.6408C22.5981 17.6416 22.5978 17.6437 22.5964 17.6475C22.5891 17.6666 22.5641 17.6981 22.5144 17.7348C22.4676 17.7694 22.4099 17.8006 22.3561 17.8228C22.2988 17.8465 22.259 17.8548 22.2453 17.8548V18.0548ZM22.0124 17.9463C22.0573 17.9842 22.135 18.0548 22.2453 18.0548V17.8548C22.22 17.8548 22.1976 17.8409 22.1415 17.7935L22.0124 17.9463ZM21.903 17.883C21.9317 17.883 21.956 17.8986 22.0124 17.9463L22.1415 17.7935C22.0954 17.7546 22.0164 17.683 21.903 17.683V17.883ZM21.757 17.9687C21.7866 17.9432 21.8123 17.9213 21.8392 17.905C21.8654 17.8892 21.8859 17.883 21.903 17.883V17.683C21.8365 17.683 21.7799 17.7072 21.7357 17.7339C21.6921 17.7603 21.654 17.7934 21.6265 17.8171L21.757 17.9687ZM21.5932 18.0548C21.6386 18.0548 21.6751 18.0322 21.6944 18.0189C21.7163 18.0039 21.7388 17.9844 21.757 17.9687L21.6265 17.8171C21.6056 17.8351 21.5922 17.8465 21.5812 17.854C21.5761 17.8575 21.5743 17.8582 21.575 17.8579C21.5757 17.8576 21.5823 17.8548 21.5932 17.8548V18.0548ZM21.4019 17.974C21.4344 17.9926 21.4667 18.0111 21.4938 18.0247C21.5074 18.0315 21.5219 18.0383 21.5362 18.0435C21.5485 18.048 21.5694 18.0548 21.5932 18.0548V17.8548C21.6053 17.8548 21.6111 17.8579 21.6051 17.8557C21.601 17.8542 21.5941 17.8512 21.5835 17.8459C21.5623 17.8353 21.5353 17.8199 21.501 17.8003L21.4019 17.974ZM21.0138 17.8187C21.0643 17.8187 21.128 17.8369 21.2001 17.8684C21.2708 17.8993 21.3401 17.9388 21.4019 17.974L21.501 17.8003C21.4405 17.7658 21.3622 17.721 21.2802 17.6852C21.1996 17.6499 21.1057 17.6187 21.0138 17.6187V17.8187ZM20.7883 17.797C20.8081 17.8215 20.8506 17.8441 20.8673 17.8468C20.8759 17.8471 20.8893 17.8461 20.8942 17.8453C20.9021 17.8437 20.9081 17.8415 20.9094 17.841C20.9134 17.8396 20.9164 17.8382 20.9169 17.8379C20.9187 17.8371 20.9202 17.8364 20.9203 17.8363C20.9207 17.8361 20.9211 17.8359 20.9212 17.8358C20.9213 17.8358 20.9215 17.8357 20.9215 17.8357C20.9217 17.8356 20.9218 17.8355 20.9219 17.8355C20.9222 17.8353 20.923 17.8349 20.9244 17.8343C20.9271 17.8331 20.9324 17.831 20.9401 17.8287C20.9553 17.8241 20.9802 17.8187 21.0138 17.8187V17.6187C20.9585 17.6187 20.9141 17.6276 20.8822 17.6372C20.8662 17.6421 20.8535 17.647 20.8441 17.6512C20.8394 17.6532 20.8356 17.655 20.8328 17.6564C20.8313 17.6572 20.8303 17.6577 20.8297 17.658C20.8291 17.6583 20.8296 17.658 20.83 17.6578C20.83 17.6578 20.8314 17.6571 20.8332 17.6563C20.8337 17.6561 20.8367 17.6547 20.8406 17.6532C20.8419 17.6528 20.8479 17.6505 20.8558 17.649C20.8607 17.6482 20.8741 17.6471 20.8827 17.6474C20.8994 17.6502 20.9419 17.6728 20.9617 17.6973L20.7883 17.797ZM20.8855 15.6414C20.8855 15.6725 20.8778 15.7098 20.8648 15.7356C20.8508 15.7635 20.8458 15.7528 20.8585 15.753L20.8559 15.9529C20.9562 15.9543 21.0154 15.8816 21.0436 15.8253C21.0729 15.767 21.0855 15.6979 21.0855 15.6414H20.8855Z" fill="white"/>
<path d="M26.2324 4.74512C26.2324 4.74512 27.8466 11.9997 26.2324 11.9997V11.9997C25.3651 11.9997 25.9531 11.6343 25.9852 10.7676C25.9923 10.577 25.9675 10.3411 25.9007 10.0504C25.4105 7.91883 24.9531 9.3863 24.9531 7.5118C24.9531 5.6373 24.6183 4.37978 24.6183 5.33831C24.6183 6.29683 24.3961 12.0869 23.5205 10.9024C22.6449 9.71803 22.8577 6.05022 22.8577 5.69426" stroke="white"/>
</g>
</svg>
