<svg width="18" height="16" viewBox="0 0 18 16" fill="none" xmlns="http://www.w3.org/2000/svg">
<path d="M17.25 5.40833L16.375 1.76667C16.1917 1.01667 15.5417 0.5 14.7834 0.5H3.20838C2.45838 0.5 1.80005 1.025 1.62505 1.76667L0.750046 5.40833C0.550046 6.25833 0.733379 7.125 1.26671 7.80833C1.33338 7.9 1.42505 7.96667 1.50005 8.05V13.8333C1.50005 14.75 2.25005 15.5 3.16671 15.5H14.8334C15.75 15.5 16.5 14.75 16.5 13.8333V8.05C16.575 7.975 16.6667 7.9 16.7334 7.81667C17.2667 7.13333 17.4584 6.25833 17.25 5.40833ZM14.7584 2.15833L15.6334 5.8C15.7167 6.15 15.6417 6.5 15.425 6.775C15.3084 6.925 15.0584 7.16667 14.6417 7.16667C14.1334 7.16667 13.6917 6.75833 13.6334 6.21667L13.15 2.16667L14.7584 2.15833ZM9.83338 2.16667H11.4667L11.9167 5.93333C11.9584 6.25833 11.8584 6.58333 11.6417 6.825C11.4584 7.04167 11.1917 7.16667 10.85 7.16667C10.2917 7.16667 9.83338 6.675 9.83338 6.075V2.16667ZM6.07505 5.93333L6.53338 2.16667H8.16671V6.075C8.16671 6.675 7.70838 7.16667 7.09171 7.16667C6.80838 7.16667 6.55005 7.04167 6.35005 6.825C6.24617 6.70277 6.16822 6.5607 6.12095 6.40742C6.07367 6.25413 6.05805 6.09284 6.07505 5.93333ZM2.36671 5.8L3.20838 2.16667H4.85005L4.36671 6.21667C4.30005 6.75833 3.86671 7.16667 3.35838 7.16667C2.95005 7.16667 2.69171 6.925 2.58338 6.775C2.35838 6.50833 2.28338 6.15 2.36671 5.8ZM3.16671 13.8333V8.80833C3.23338 8.81667 3.29171 8.83333 3.35838 8.83333C4.08338 8.83333 4.74171 8.53333 5.22505 8.04167C5.72505 8.54167 6.39171 8.83333 7.15005 8.83333C7.87505 8.83333 8.52505 8.53333 9.00838 8.05833C9.50005 8.53333 10.1667 8.83333 10.9167 8.83333C11.6167 8.83333 12.2834 8.54167 12.7834 8.04167C13.2667 8.53333 13.925 8.83333 14.65 8.83333C14.7167 8.83333 14.775 8.81667 14.8417 8.80833V13.8333H3.16671Z" fill="#3D414D"/>
</svg>
