<svg width="24" height="24" viewBox="0 0 24 24" fill="none" xmlns="http://www.w3.org/2000/svg">
<g id="Instagram/black">
<g id="Instagram">
<path id="Combined-Shape" fill-rule="evenodd" clip-rule="evenodd" d="M12 0C5.37258 0 0 5.37258 0 12C0 18.6274 5.37258 24 12 24C18.6274 24 24 18.6274 24 12C24 5.37258 18.6274 0 12 0ZM9.36125 5.63828C10.0439 5.60721 10.2621 5.59961 12.0002 5.59961H11.9982C13.7369 5.59961 13.9542 5.60721 14.6369 5.63828C15.3182 5.66948 15.7836 5.77734 16.1916 5.93561C16.6129 6.09895 16.9689 6.31762 17.3249 6.67362C17.6809 7.02936 17.8996 7.38643 18.0636 7.80737C18.2209 8.2143 18.3289 8.67937 18.3609 9.36071C18.3916 10.0434 18.3996 10.2615 18.3996 11.9997C18.3996 13.7378 18.3916 13.9554 18.3609 14.6381C18.3289 15.3192 18.2209 15.7844 18.0636 16.1915C17.8996 16.6123 17.6809 16.9693 17.3249 17.3251C16.9693 17.6811 16.6128 17.9003 16.192 18.0637C15.7848 18.222 15.3192 18.3299 14.6378 18.3611C13.9552 18.3921 13.7377 18.3997 11.9994 18.3997C10.2614 18.3997 10.0434 18.3921 9.36071 18.3611C8.67951 18.3299 8.2143 18.222 7.8071 18.0637C7.38643 17.9003 7.02936 17.6811 6.67375 17.3251C6.31788 16.9693 6.09921 16.6123 5.93561 16.1913C5.77748 15.7844 5.66961 15.3193 5.63828 14.638C5.60734 13.9553 5.59961 13.7378 5.59961 11.9997C5.59961 10.2615 5.60761 10.0433 5.63814 9.36058C5.66881 8.67951 5.77681 8.2143 5.93548 7.80723C6.09948 7.38643 6.31815 7.02936 6.67415 6.67362C7.02989 6.31775 7.38696 6.09908 7.8079 5.93561C8.21484 5.77734 8.67991 5.66948 9.36125 5.63828Z" fill="white"/>
<path id="Combined-Shape_2" fill-rule="evenodd" clip-rule="evenodd" d="M11.4265 6.75331C11.538 6.75313 11.6579 6.75319 11.7873 6.75325L12.0006 6.75331C13.7094 6.75331 13.912 6.75944 14.5868 6.79011C15.2108 6.81864 15.5495 6.92291 15.7751 7.01051C16.0737 7.12651 16.2867 7.26518 16.5105 7.48918C16.7345 7.71319 16.8732 7.92652 16.9895 8.22519C17.0771 8.45053 17.1815 8.7892 17.2099 9.4132C17.2405 10.0879 17.2472 10.2905 17.2472 11.9986C17.2472 13.7066 17.2405 13.9093 17.2099 14.5839C17.1813 15.2079 17.0771 15.5466 16.9895 15.7719C16.8735 16.0706 16.7345 16.2833 16.5105 16.5071C16.2865 16.7311 16.0739 16.8698 15.7751 16.9858C15.5497 17.0738 15.2108 17.1778 14.5868 17.2064C13.9121 17.237 13.7094 17.2437 12.0006 17.2437C10.2917 17.2437 10.0891 17.237 9.41447 17.2064C8.79046 17.1776 8.45179 17.0733 8.22605 16.9857C7.92739 16.8697 7.71405 16.731 7.49005 16.507C7.26604 16.283 7.12738 16.0702 7.01111 15.7714C6.92351 15.5461 6.81911 15.2074 6.79071 14.5834C6.76004 13.9087 6.75391 13.706 6.75391 11.997C6.75391 10.2879 6.76004 10.0863 6.79071 9.4116C6.81924 8.7876 6.92351 8.44893 7.01111 8.22332C7.12711 7.92465 7.26604 7.71132 7.49005 7.48732C7.71405 7.26331 7.92739 7.12465 8.22605 7.00838C8.45166 6.92038 8.79046 6.81638 9.41447 6.78771C10.0049 6.76104 10.2337 6.75304 11.4265 6.75171V6.75331ZM15.4164 7.81643C14.9924 7.81643 14.6484 8.16003 14.6484 8.58417C14.6484 9.00817 14.9924 9.35218 15.4164 9.35218C15.8405 9.35218 16.1845 9.00817 16.1845 8.58417C16.1845 8.16017 15.8405 7.81616 15.4164 7.81616V7.81643ZM8.71387 12.0003C8.71387 10.1853 10.1854 8.71369 12.0004 8.71362C13.8155 8.71362 15.2867 10.1852 15.2867 12.0003C15.2867 13.8154 13.8157 15.2864 12.0006 15.2864C10.1855 15.2864 8.71387 13.8154 8.71387 12.0003Z" fill="white"/>
<path id="Shape" d="M12.0005 9.86719C13.1787 9.86719 14.1339 10.8223 14.1339 12.0005C14.1339 13.1787 13.1787 14.1339 12.0005 14.1339C10.8223 14.1339 9.86719 13.1787 9.86719 12.0005C9.86719 10.8223 10.8223 9.86719 12.0005 9.86719Z" fill="white"/>
</g>
</g>
</svg>
