<svg width="24" height="24" viewBox="0 0 24 24" fill="none" xmlns="http://www.w3.org/2000/svg">
<g id="WhatsApp/black">
<g id="WhatsApp">
<path id="Combined-Shape" fill-rule="evenodd" clip-rule="evenodd" d="M0 12C0 18.6274 5.37258 24 12 24C18.6274 24 24 18.6274 24 12C24 5.37258 18.6274 0 12 0C5.37258 0 0 5.37258 0 12ZM19.5313 11.5411C19.5297 15.4745 16.3299 18.675 12.3957 18.6766H12.3928C11.1985 18.6762 10.0251 18.3766 8.98287 17.8081L5.2002 18.8004L6.2125 15.1028C5.58806 14.0206 5.25948 12.7931 5.26002 11.5355C5.26159 7.60124 8.4626 4.40039 12.3957 4.40039C14.3045 4.40121 16.0961 5.14432 17.4433 6.4931C18.7905 7.8418 19.532 9.63456 19.5313 11.5411Z" fill="white"/>
<path id="Combined-Shape_2" fill-rule="evenodd" clip-rule="evenodd" d="M6.9135 17.105L9.15819 16.5162L9.37476 16.6447C10.2853 17.1851 11.3292 17.471 12.3934 17.4714H12.3958C15.6647 17.4714 18.3252 14.8108 18.3265 11.5406C18.3271 9.95585 17.7108 8.46579 16.5911 7.34474C15.4713 6.2237 13.9822 5.60602 12.3981 5.60547C9.12672 5.60547 6.46614 8.2658 6.46484 11.5358C6.46438 12.6564 6.77794 13.7478 7.37162 14.6921L7.51264 14.9165L6.9135 17.105ZM15.746 13.0774C15.8703 13.1375 15.9543 13.1781 15.9902 13.2379C16.0347 13.3123 16.0347 13.6692 15.8862 14.0858C15.7376 14.5022 15.0253 14.8824 14.6827 14.9335C14.3756 14.9795 13.9868 14.9986 13.5597 14.8629C13.3008 14.7807 12.9687 14.671 12.5433 14.4873C10.8719 13.7656 9.74229 12.1456 9.5288 11.8394C9.51385 11.8179 9.50339 11.8029 9.49755 11.7951L9.49611 11.7932C9.40176 11.6673 8.76953 10.8238 8.76953 9.95074C8.76953 9.12948 9.17295 8.69901 9.35865 8.50086C9.37137 8.48729 9.38307 8.4748 9.39355 8.46336C9.55697 8.28486 9.75014 8.24023 9.869 8.24023C9.98784 8.24023 10.1068 8.24133 10.2107 8.24655C10.2235 8.24719 10.2369 8.24712 10.2506 8.24703C10.3545 8.24643 10.4841 8.24567 10.6119 8.55261C10.661 8.67074 10.733 8.84586 10.8088 9.03057C10.9622 9.40407 11.1318 9.81674 11.1616 9.87646C11.2062 9.96571 11.2359 10.0698 11.1764 10.1888C11.1675 10.2067 11.1593 10.2235 11.1514 10.2396C11.1067 10.3308 11.0739 10.3978 10.9982 10.4862C10.9684 10.521 10.9376 10.5585 10.9068 10.596C10.8454 10.6707 10.7841 10.7454 10.7307 10.7986C10.6414 10.8875 10.5485 10.984 10.6525 11.1625C10.7565 11.341 11.1144 11.9248 11.6444 12.3976C12.2142 12.9058 12.7094 13.1206 12.9604 13.2295C13.0094 13.2507 13.0491 13.268 13.0782 13.2825C13.2564 13.3718 13.3604 13.3569 13.4645 13.2379C13.5685 13.1189 13.9102 12.7173 14.029 12.5388C14.1478 12.3604 14.2667 12.3901 14.4301 12.4496C14.5936 12.5091 15.4702 12.9404 15.6485 13.0297C15.6833 13.0471 15.7158 13.0628 15.746 13.0774Z" fill="white"/>
</g>
</g>
</svg>
