<?xml version="1.0" encoding="utf-8"?>
<!-- Generator: Adobe Illustrator 23.1.0, SVG Export Plug-In . SVG Version: 6.00 Build 0)  -->
<svg version="1.1" id="Layer_1" xmlns="http://www.w3.org/2000/svg" xmlns:xlink="http://www.w3.org/1999/xlink" x="0px" y="0px"
	 viewBox="0 0 1000 800" style="enable-background:new 0 0 1000 800;" xml:space="preserve">
<style type="text/css">
	.st0{fill:#1B2029;}
	.st1{fill:#EE2557;}
	.st2{opacity:0.15;fill:#1C2029;}
</style>
<g>
	<g>
		<g>
			<path class="st0" d="M216.8,588.9h-33.1l-7.2,22.9h-20.3l32.7-94.3h23.2l32.8,94.3h-21L216.8,588.9z M187.9,574.2h24.6
				l-12.1-38.6H200L187.9,574.2z"/>
			<path class="st0" d="M247,513h19.1v98.8H247V513z"/>
			<path class="st0" d="M269.9,591.1c0-13.1,10-20.5,28.4-21.6l18-1.1v-4.8c0-6.9-4.8-10.7-12.6-10.7c-6.9,0-11.8,3.7-12.7,8.9
				h-17.4c0.5-13.7,12.9-23.2,30.9-23.2c18.5,0,30.6,9.5,30.6,23.8v49.3h-18.4v-11.1h-0.4c-3.9,7.5-12.8,12-22,12
				C280.3,612.6,269.9,603.9,269.9,591.1z M316.2,585.4v-5.3l-15.1,1c-8,0.5-12.2,3.7-12.2,9c0,5.3,4.5,8.6,11.4,8.6
				C309.1,598.7,316.2,593.2,316.2,585.4z"/>
			<path class="st0" d="M338.4,575.7c0-22.5,11.6-36.7,29.5-36.7c10.4,0,18.4,5.2,22,13.1h0.4V513h19.1v98.8h-18.8v-12.3h-0.3
				c-3.5,7.9-11.8,13.1-22.4,13.1C350,612.6,338.4,598.4,338.4,575.7z M357.9,575.8c0,13.2,6.3,21.4,16.3,21.4
				c9.9,0,16.3-8.4,16.3-21.4c0-13-6.4-21.4-16.3-21.4C364.3,554.4,357.9,562.7,357.9,575.8z"/>
			<path class="st0" d="M413.3,575.7c0-22.5,11.6-36.7,29.5-36.7c10.4,0,18.4,5.2,22,13.1h0.4V513h19.1v98.8h-18.8v-12.3h-0.3
				c-3.5,7.9-11.8,13.1-22.4,13.1C424.9,612.6,413.3,598.4,413.3,575.7z M432.8,575.8c0,13.2,6.3,21.4,16.3,21.4
				c9.9,0,16.3-8.4,16.3-21.4c0-13-6.4-21.4-16.3-21.4C439.2,554.4,432.8,562.7,432.8,575.8z"/>
			<path class="st0" d="M490.5,522c0-5.7,4.6-9.9,10.3-9.9c5.7,0,10.3,4.2,10.3,9.9s-4.6,10-10.3,10
				C495.1,532,490.5,527.7,490.5,522z M491.2,539.9h19.1v71.9h-19.1V539.9z"/>
			<path class="st0" d="M516.9,539.9h18.4v12.9h0.4c4.1-9.1,11.4-13.9,22.5-13.9c15.9,0,25,10.1,25,26.9v46.1H564v-42.1
				c0-9.5-4.4-15-13.5-15c-9.1,0-14.6,6.5-14.6,16.1v41h-19.1V539.9z"/>
			<path class="st0" d="M682.2,611.8h-8.4v-77.4h-0.4l-32.8,76.9h-7.8l-32.7-76.9h-0.4v77.4h-8.4v-94.3h10.3l35,82.5h0.4l34.9-82.5
				h10.3V611.8z"/>
			<path class="st0" d="M691.2,521.7c0-3.3,2.7-5.9,5.9-5.9c3.2,0,5.8,2.6,5.8,5.9c0,3.1-2.6,5.8-5.8,5.8
				C693.9,527.5,691.2,524.8,691.2,521.7z M692.8,541.4h8.6v70.4h-8.6V541.4z"/>
			<path class="st0" d="M711.6,513.4h8.6v98.4h-8.6V513.4z"/>
			<path class="st0" d="M787,591.9c-2.1,12-13.7,20.7-28.9,20.7c-19.5,0-31.9-13.7-31.9-35.8c0-21.8,12.4-36.1,31.4-36.1
				c18.5,0,30.4,13.4,30.4,34.3v3.8h-52.8v0.5c0,15.9,9.1,25.7,23.1,25.7c10.6,0,18.1-5.4,20.2-13.1H787z M735.1,571.7h43.8
				c-0.1-14-8.8-23.4-21.5-23.4C744.8,548.3,735.9,557.7,735.1,571.7z"/>
			<path class="st0" d="M817.1,540.6c14.2,0,24.6,8.5,25.3,20.6h-8.3c-0.8-8-7.3-13.3-17.3-13.3c-9.4,0-16.5,4.8-16.5,12
				c0,5.8,4.2,9.1,13.1,11.3l10.8,2.6c14.1,3.5,19.5,8.6,19.5,18.6c0,11.9-11.3,20.1-27.1,20.1c-15.1,0-25.9-8.6-26.9-20.6h8.8
				c1,8,8,13.3,18.7,13.3c10.5,0,17.8-4.8,17.8-12.3c0-5.9-3.6-9.2-13.1-11.6l-11.9-3c-12.2-3.1-18.2-8.8-18.2-18.1
				C791.8,548.7,802.6,540.6,817.1,540.6z"/>
		</g>
	</g>
	<g>
		<path class="st1" d="M591.6,294.3c-11.4,7.9-23.4,15.6-35.9,23.1c-10.7,6.4-21.4,12.4-32.1,17.9l-17.1-28.7v0l-23.2-38.9l-0.1-0.1
			l-47.9-80.2l94.5,0v0h0L591.6,294.3z"/>
		<path class="st1" d="M646.3,389.1l-42.4,80.6l-38.3-64.1c22.3-14.1,44-29.6,63.7-45.8L646.3,389.1z"/>
		<path class="st1" d="M620.1,343.7c-18.8,15.7-40.3,31.3-63.8,46.2c-5.6,3.6-11.2,7.1-17.1,10.5C429,466.2,321.9,489.7,300,453
			c-10.3-17.2,0-44.6,25.2-75.7l18.2-31.4l91.8-158.4l47.9,80.2l0.1,0.1l-62.3,107.5l-12.2,21c35.1-6,78.7-21.6,124.2-45.3
			c10.6-5.6,21.3-11.5,32.1-17.9c12.4-7.4,24.3-15.1,35.6-22.9c44.2-30.5,79.2-63.2,99.9-92.1C712.4,245.4,679.3,294.5,620.1,343.7z
			"/>
		<polygon class="st2" points="529.8,187.4 483.2,267.6 506.5,306.6 		"/>
	</g>
</g>
</svg>
