<svg width="480" height="506" viewBox="0 0 480 506" fill="none" xmlns="http://www.w3.org/2000/svg">
<path d="M12 93C5.3724 93 0 98.3724 0 105C0 111.628 5.3724 117 12 117C18.6276 117 24 111.628 24 105C24 98.3724 18.6276 93 12 93Z" fill="#99BCFF"/>
<path d="M400 4C396.686 4 394 6.6868 394 10C394 13.3132 396.686 16 400 16C403.314 16 406 13.3132 406 10C406 6.6868 403.314 4 400 4Z" fill="#FDEDF1"/>
<path d="M239.5 9C118.825 9 21 106.825 21 227.5C21 348.175 118.825 446 239.5 446C360.175 446 458 348.175 458 227.5C458 106.825 360.175 9 239.5 9Z" fill="#FCCFDB"/>
<path d="M436 0C423.849 0 414 9.8494 414 22C414 34.1506 423.849 44 436 44C448.151 44 458 34.1506 458 22C458 9.8494 448.151 0 436 0Z" fill="#FDEDF1"/>
<path d="M468 63C461.374 63 456 68.3724 456 75C456 81.6276 461.374 87 468 87C474.626 87 480 81.6276 480 75C480 68.3724 474.626 63 468 63Z" fill="#99BCFF"/>
<path d="M423.167 369.421C416.632 369.421 411.333 374.7 411.333 381.211C411.333 387.721 416.632 393 423.167 393C429.701 393 435 387.721 435 381.211C435 374.7 429.701 369.421 423.167 369.421ZM32.6667 281C19.5956 281 9 291.556 9 304.579C9 317.602 19.5956 328.158 32.6667 328.158C45.7378 328.158 56.3333 317.602 56.3333 304.579C56.3333 291.556 45.7378 281 32.6667 281Z" fill="#F6CA77"/>
<path d="M92 435C85.3724 435 80 440.374 80 447C80 453.626 85.3724 459 92 459C98.6276 459 104 453.626 104 447C104 440.374 98.6276 435 92 435Z" fill="#99BCFF"/>
<path d="M54 234C45.7164 234 39 240.716 39 249C39 257.284 45.7164 264 54 264C62.2836 264 69 257.284 69 249C69 240.716 62.2836 234 54 234Z" fill="#FFFEFF"/>
<path d="M78 323C74.6868 323 72 325.686 72 329C72 332.314 74.6868 335 78 335C81.3132 335 84 332.314 84 329C84 325.686 81.3132 323 78 323Z" fill="#FDEDF1"/>
<path d="M417 128C413.686 128 411 130.687 411 134C411 137.313 413.686 140 417 140C420.314 140 423 137.313 423 134C423 130.687 420.314 128 417 128Z" fill="#FFFEFF"/>
<path d="M399.883 487.285C395.638 501.094 380.517 509.123 366.805 504.85C359.588 502.6 353.986 497.667 350.497 491.006L296.919 377.149C294.926 373.342 296.267 368.98 300.047 366.974L324.62 353.926C328.399 351.919 332.73 353.267 334.723 357.075L397.528 466.642C401.239 472.576 401.893 480.745 399.883 487.285Z" fill="#BF7F42"/>
<path d="M321 355.118L302.015 365L287 336.885L305.983 327L321 355.118Z" fill="#99BCFF"/>
<path d="M279.69 128.148C219.46 109.505 155.791 143.078 137.148 203.308C118.505 263.54 152.077 327.209 212.309 345.853C272.539 364.494 336.21 330.923 354.852 270.692C373.495 210.461 339.922 146.791 279.69 128.148ZM219.046 324.081C171.152 309.256 144.094 257.943 158.919 210.047C173.743 162.152 225.057 135.093 272.952 149.917C320.848 164.741 347.905 216.059 333.08 263.953C318.256 311.849 266.942 338.906 219.046 324.081Z" fill="#CCDEFF"/>
<path d="M273.9 149.092C321.898 163.949 348.764 214.901 333.908 262.899C319.052 310.897 268.098 337.765 220.1 322.908C172.102 308.051 145.236 257.098 160.092 209.1C174.948 161.103 225.902 134.236 273.9 149.092Z" fill="#FF85A5"/>
<path d="M165.124 218.434C179.996 170.707 231.474 143.744 279.52 158.517C302.088 165.455 319.04 180.176 331 198.117C320.617 175.113 300.702 157.104 274.494 149.047C226.448 134.274 174.969 161.237 160.099 208.965C151.986 234.998 156.424 261.72 168.938 283C160.792 263.063 158.139 240.851 165.124 218.434Z" fill="#FF7096"/>
<path d="M398.056 465.766L394.82 460.811C397.103 466.264 397.486 472.714 395.685 478.493C392.76 487.885 380.002 487.919 375.486 479.405L322.784 380.076C319.773 374.4 313.229 372.387 307.518 375.381L298 380.368L350.91 489.259C353.923 494.937 358.612 500.336 364.203 502.848C371.974 506.03 380.871 505.6 387.533 502.108C394.196 498.617 399.58 491.565 401.328 483.395C403.128 477.615 401.067 471.442 398.056 465.766Z" fill="#B5713E"/>
<path d="M245.999 214C232.745 214 222 224.745 222 238C222 251.255 232.745 262 245.999 262C259.254 262 270 251.255 270 238C270 224.745 259.254 214 245.999 214Z" fill="#FFFEFF"/>
</svg>
