<?xml version="1.0" encoding="utf-8"?>
<!-- Generator: Adobe Illustrator 23.1.0, SVG Export Plug-In . SVG Version: 6.00 Build 0)  -->
<svg version="1.1" id="Layer_1" xmlns="http://www.w3.org/2000/svg" xmlns:xlink="http://www.w3.org/1999/xlink" x="0px" y="0px"
	 viewBox="0 0 1000 800" style="enable-background:new 0 0 1000 800;" xml:space="preserve">
<style type="text/css">
	.st0{fill:#EE2557;}
	.st1{opacity:0.15;fill:#1C2029;}
</style>
<g>
	<path class="st0" d="M647.1,344.9c-18.2,12.6-37.4,25-57.3,36.9c-17.1,10.2-34.2,19.8-51.3,28.6l-27.4-45.8v0L474,302.4l-0.1-0.2
		l-76.6-128.1l151,0v0h0L647.1,344.9z"/>
	<path class="st0" d="M734.5,496.3L666.8,625l-61.2-102.5c35.5-22.6,70.2-47.3,101.8-73.2L734.5,496.3z"/>
	<path class="st0" d="M692.6,423.7c-30.1,25-64.4,50-102,73.9c-8.9,5.7-18,11.3-27.2,16.8c-176,105-347.1,142.6-382.1,83.9
		c-16.4-27.5,0-71.3,40.3-120.9l29.1-50.2l146.7-253.1l76.6,128.1l0.1,0.2l-99.5,171.7L355,507.7c56.1-9.6,125.7-34.4,198.5-72.3
		c16.9-8.9,34.1-18.4,51.2-28.6c19.9-11.8,38.8-24.1,56.9-36.6c70.6-48.7,126.5-100.9,159.6-147.2
		C840,266.7,787.2,345.1,692.6,423.7z"/>
	<polygon class="st1" points="548.3,174 473.9,302.2 511.1,364.5 	"/>
</g>
</svg>
